<svg width="24" height="24" viewBox="0 0 24 24" fill="none" xmlns="http://www.w3.org/2000/svg">
<g clip-path="url(#clip0_1_22)">
<mask id="mask0_1_22" style="mask-type:luminance" maskUnits="userSpaceOnUse" x="0" y="5" width="9" height="14">
<path d="M0.755829 5.20001H8.60802V18.8H0.755829V5.20001Z" fill="white"/>
</mask>
<g mask="url(#mask0_1_22)">
<mask id="mask1_1_22" style="mask-type:luminance" maskUnits="userSpaceOnUse" x="0" y="0" width="24" height="24">
<path d="M22.9629 9.90897H12.2513V14.35H18.417C17.8422 17.1714 15.4387 18.7911 12.2513 18.7911C8.48917 18.7911 5.45855 15.7607 5.45855 11.9988C5.45855 8.23703 8.48917 5.20665 12.2513 5.20665C13.8711 5.20665 15.3342 5.7814 16.4837 6.72184L19.8278 3.37803C17.79 1.60159 15.1774 0.504402 12.2513 0.504402C5.87655 0.504402 0.755859 5.62465 0.755859 11.9988C0.755859 18.3731 5.87655 23.4933 12.2513 23.4933C17.999 23.4933 23.2242 19.3135 23.2242 11.9988C23.2242 11.3197 23.1197 10.5882 22.9629 9.90897Z" fill="white"/>
</mask>
<g mask="url(#mask1_1_22)">
<path d="M-0.289154 18.7911V5.20665L8.59366 11.9988L-0.289154 18.7911Z" fill="#FBBC05"/>
</g>
</g>
<mask id="mask2_1_22" style="mask-type:luminance" maskUnits="userSpaceOnUse" x="0" y="0" width="24" height="12">
<path d="M0.755829 0.495987H23.2241V12H0.755829V0.495987Z" fill="white"/>
</mask>
<g mask="url(#mask2_1_22)">
<mask id="mask3_1_22" style="mask-type:luminance" maskUnits="userSpaceOnUse" x="0" y="0" width="24" height="24">
<path d="M22.9629 9.90894H12.2513V14.35H18.417C17.8422 17.1714 15.4387 18.7911 12.2513 18.7911C8.48917 18.7911 5.45855 15.7607 5.45855 11.9988C5.45855 8.237 8.48917 5.20663 12.2513 5.20663C13.8711 5.20663 15.3342 5.78138 16.4837 6.72182L19.8278 3.378C17.79 1.60157 15.1774 0.504379 12.2513 0.504379C5.87655 0.504379 0.755859 5.62463 0.755859 11.9988C0.755859 18.3731 5.87655 23.4933 12.2513 23.4933C17.999 23.4933 23.2242 19.3135 23.2242 11.9988C23.2242 11.3196 23.1197 10.5881 22.9629 9.90894Z" fill="white"/>
</mask>
<g mask="url(#mask3_1_22)">
<path d="M-0.289154 5.20662L8.59366 11.9988L12.2513 8.81175L24.7917 6.77406V-0.540627H-0.289154V5.20662Z" fill="#EA4335"/>
</g>
</g>
<mask id="mask4_1_22" style="mask-type:luminance" maskUnits="userSpaceOnUse" x="0" y="0" width="24" height="24">
<path d="M0.755829 0.495987H23.2241V23.4933H0.755829V0.495987Z" fill="white"/>
</mask>
<g mask="url(#mask4_1_22)">
<mask id="mask5_1_22" style="mask-type:luminance" maskUnits="userSpaceOnUse" x="0" y="0" width="24" height="24">
<path d="M22.9629 9.90894H12.2513V14.35H18.417C17.8422 17.1714 15.4387 18.7911 12.2513 18.7911C8.48917 18.7911 5.45855 15.7607 5.45855 11.9988C5.45855 8.237 8.48917 5.20663 12.2513 5.20663C13.8711 5.20663 15.3342 5.78138 16.4837 6.72182L19.8278 3.378C17.79 1.60157 15.1774 0.504379 12.2513 0.504379C5.87655 0.504379 0.755859 5.62463 0.755859 11.9988C0.755859 18.3731 5.87655 23.4933 12.2513 23.4933C17.999 23.4933 23.2242 19.3135 23.2242 11.9988C23.2242 11.3196 23.1197 10.5881 22.9629 9.90894Z" fill="white"/>
</mask>
<g mask="url(#mask5_1_22)">
<path d="M-0.289154 18.7911L15.3864 6.77406L19.5143 7.29656L24.7917 -0.540627V24.5383H-0.289154V18.7911Z" fill="#34A853"/>
</g>
</g>
<mask id="mask6_1_22" style="mask-type:luminance" maskUnits="userSpaceOnUse" x="6" y="5" width="18" height="19">
<path d="M6.49594 5.20001H23.2241V23.4933H6.49594V5.20001Z" fill="white"/>
</mask>
<g mask="url(#mask6_1_22)">
<mask id="mask7_1_22" style="mask-type:luminance" maskUnits="userSpaceOnUse" x="0" y="0" width="24" height="24">
<path d="M22.9629 9.90897H12.2512V14.35H18.417C17.8422 17.1714 15.4386 18.7911 12.2512 18.7911C8.48911 18.7911 5.45849 15.7607 5.45849 11.9988C5.45849 8.23703 8.48911 5.20665 12.2512 5.20665C13.871 5.20665 15.3341 5.7814 16.4836 6.72184L19.8277 3.37803C17.7899 1.60159 15.1774 0.504402 12.2512 0.504402C5.87649 0.504402 0.755798 5.62465 0.755798 11.9988C0.755798 18.3731 5.87649 23.4933 12.2512 23.4933C17.9989 23.4933 23.2241 19.3135 23.2241 11.9988C23.2241 11.3197 23.1196 10.5882 22.9629 9.90897Z" fill="white"/>
</mask>
<g mask="url(#mask7_1_22)">
<path d="M24.7917 24.5383L8.5936 11.9988L6.50354 10.4315L24.7917 5.20665V24.5383Z" fill="#4285F4"/>
</g>
</g>
</g>
<defs>
<clipPath id="clip0_1_22">
<rect width="24" height="24" fill="white"/>
</clipPath>
</defs>
</svg>
